# xmcd
#
# Track frame offsets:
#	150
#	15288
#	29895
#	44815
#	61593
#	74738
#	95798
#	113003
#	127770
#	143268
#	157285
#	173795
#
# Disc length: 2499 seconds
#
# Revision: 0
# Processed by: cddbd v1.4PL0 Copyright (c) Steve Scherf et al.
# Submitted via: dBpowerAMP V4.0
#
DISCID=a509c10c
DTITLE=Angel Parra - Boleros
DYEAR=1994
DGENRE=Ballad
TTITLE0=La barca - Roberto Cantoral
TTITLE1=Contigo en la distancia - César Portillo de la Cruz
TTITLE2=Brillo de mar - Violeta Parra
TTITLE3=El reloj - Roberto Cantoral
TTITLE4=Morir llorando - Violeta Parra
TTITLE5=Escucha mi ruego - Violeta Parra
TTITLE6=Sabor a mi - Alvaro Carrillo
TTITLE7=Muñeca triste - Angel Parra
TTITLE8=Encadenado - Corlos Arturo Briz
TTITLE9=Historia de un amor - Carlos Almarán
TTITLE10=Tú me acostumbraste - Frank Domínguez
TTITLE11=Obsesión - Pedro Flores
EXTD=
EXTT0=
EXTT1=
EXTT2=
EXTT3=
EXTT4=
EXTT5=
EXTT6=
EXTT7=
EXTT8=
EXTT9=
EXTT10=
EXTT11=
PLAYORDER=
